<svg width="104" height="32" viewBox="0 0 104 32" fill="none" xmlns="http://www.w3.org/2000/svg">
<path fill-rule="evenodd" clip-rule="evenodd" d="M97.8442 10.4518C98.1906 10.4518 98.4013 10.6929 98.487 11.0173C98.6709 11.7042 97.7746 13.3782 94.6409 15.3013C94.7105 13.0724 96.0586 10.4518 97.8442 10.4518ZM88.2521 10.4518C88.7753 10.4518 88.8092 10.9668 88.8342 11.1512C88.9663 12.1235 88.0682 13.846 85.1291 14.834C85.4434 12.7743 86.7968 10.4518 88.2521 10.4518ZM75.5763 2.34586C76.5691 2.34586 75.7548 5.72881 72.5979 10.4668C73.3211 4.18786 74.3657 2.34586 75.5763 2.34586ZM64.6789 10.4518C64.9735 10.4518 65.0467 10.6856 65.086 10.8181C65.2128 11.2511 64.7575 12.9565 61.3506 15.3406C61.5452 13.0659 62.9308 10.4518 64.6789 10.4518ZM50.5639 29.6557C50.2104 29.6557 49.9693 29.4307 49.9693 28.9879C49.9693 26.9506 53.1512 24.1669 53.1851 24.1579C52.7512 26.897 51.6406 29.6557 50.5639 29.6557ZM103.081 16.2128C102.544 15.8566 101.819 16.0025 101.458 16.538C101.399 16.6256 99.9815 18.6923 97.5103 18.6923C96.5389 18.6923 95.8033 18.3923 95.3248 17.7995C95.2926 17.7602 95.2623 17.7174 95.2301 17.6752C95.2426 17.6699 95.2515 17.6638 95.2623 17.6577C101.071 14.3165 101.037 11.4778 100.753 10.4126C100.412 9.13765 99.2709 8.31397 97.8442 8.31397C94.5248 8.31397 92.2946 12.0201 92.2946 15.4813C92.2946 15.9212 92.3357 16.3425 92.4053 16.7458C91.2286 17.6159 89.4002 18.6923 87.795 18.6923C86.8593 18.6923 86.1558 18.4155 85.7059 17.8656C85.5452 17.6706 85.422 17.4522 85.3309 17.226C89.7788 15.9359 91.4643 13.0968 91.1554 10.834C90.9537 9.35014 89.8466 8.31397 88.4646 8.31397C85.3702 8.31397 83.1328 11.5643 82.7704 14.789C82.1793 14.7274 81.6419 14.5533 81.1669 14.2599C81.2455 13.7484 81.2848 13.2459 81.2848 12.7684C81.2848 11.7175 81.0848 10.8018 80.7045 10.1192C80.1866 9.18551 79.3456 8.67126 78.3368 8.67126C77.7958 8.67126 77.3101 8.9691 77.0369 9.4687C76.4619 10.5197 76.8298 12.5595 77.8886 14.2137C78.0939 14.5338 78.3189 14.8294 78.56 15.0997C77.9815 16.9654 76.7833 18.7208 75.2156 18.7208C74.5121 18.7208 73.9853 18.503 73.5568 18.037C72.9408 17.3661 72.5462 16.1726 72.4176 14.6637C76.7815 9.21122 78.901 3.8777 77.6958 1.35182C77.2851 0.492819 76.5173 0 75.5888 0C72.5712 8.92788e-06 70.7749 3.90577 70.0963 11.9398C70.0535 12.4314 70.0231 13.0245 70.0285 13.67C68.4161 15.8524 65.7753 18.6923 63.3897 18.6923C62.7094 18.6923 62.2112 18.462 61.872 17.9888C61.8416 17.9495 61.8148 17.9067 61.7881 17.8638C61.8148 17.8477 61.8434 17.8317 61.8702 17.8138C67.7251 14.0289 67.6412 11.1966 67.3341 10.154C66.9984 9.01948 65.9806 8.314 64.6789 8.314C61.272 8.314 58.9829 12.2267 58.9829 15.8815C58.9829 16.2121 59.0043 16.5327 59.0436 16.8416C57.9687 17.6153 57.0777 18.3048 56.2224 18.9726C56.351 17.9727 56.5402 16.7096 56.7527 14.814V14.8133C56.8027 14.4307 56.8456 14.1169 56.867 13.963C57.0581 12.578 54.7868 12.2914 54.5404 13.8371C54.2868 15.4285 53.6012 18.7209 51.7335 18.7209C50.605 18.7209 50.0122 17.466 50.1211 15.6411C50.2943 12.7712 51.8424 10.431 53.7619 10.431C54.4208 10.431 54.7636 11.1358 54.7636 11.1358C55.3689 12.2375 57.2509 11.3075 56.8527 10.1423C56.6759 9.62176 56.0421 8.32918 53.8547 8.32918C49.3604 8.32918 47.9713 12.8787 47.7713 15.8815C47.7374 16.3755 47.7481 16.853 47.7927 17.3072C47.166 18.0709 46.4196 18.7209 45.6947 18.7209C44.9822 18.7209 44.5322 17.9281 44.7983 16.0964C45.0518 14.3498 45.2304 12.9061 45.35 12.061C45.8946 8.24044 41.1147 8.34543 41.1147 8.34543C41.1147 8.34543 41.0629 6.11703 39.2219 6.11703C38.2792 6.11703 37.4435 6.8493 37.4435 8.23026C37.4435 9.50695 38.4899 10.1346 38.4899 10.1346L38.4952 10.1356C38.2631 12.113 37.3346 18.7209 35.274 18.7209C34.3491 18.7209 34.2866 17.721 34.367 17.0187C34.4794 16.0429 34.6562 14.3901 34.7151 13.963C34.9062 12.578 32.6332 12.2914 32.3885 13.8371C32.135 15.4285 31.4493 18.7209 29.5816 18.7209C28.4531 18.7209 27.8585 17.3013 27.9496 15.5931C28.1049 12.666 29.6905 10.431 31.61 10.431C32.2689 10.431 32.6117 11.1358 32.6117 11.1358C33.1117 12.2271 35.0883 11.4423 34.7009 10.1423C34.5312 9.56819 33.8902 8.32918 31.7029 8.32918C27.2068 8.32918 25.8176 12.8787 25.6194 15.8815C25.5873 16.3461 25.5962 16.7951 25.6337 17.2246C24.9909 18.0977 24.216 18.7209 23.4857 18.7209C22.8196 18.7209 22.309 18.378 22.4322 16.8667C22.4893 16.1609 23.3107 11.3359 23.2571 10.4558C23.166 8.99234 22.5018 8.34722 20.8698 8.34722C19.1538 8.34722 17.8575 9.22929 17.3133 9.79282C17.3133 9.79282 18.1253 3.70418 18.2789 2.53516C18.4414 1.3101 16.086 1.29772 15.9323 2.52498C15.8657 3.05709 15.237 7.88118 14.6544 12.3346C13.3416 15.2426 10.6811 19.7244 6.74247 19.7244C-0.719451 19.7244 2.72403 3.45956 9.70403 3.45956C11.34 3.45956 10.6093 6.07221 9.51226 7.66548C8.72893 8.80343 10.7029 10.1123 11.7932 8.27222C14.8063 3.18761 12.267 1.28633 9.88027 1.28633C-0.493397 1.28633 -4.34364 21.9722 6.46232 21.9722C10.0199 21.9722 12.4006 19.9724 13.9346 17.8226C13.7739 19.0439 13.6637 19.876 13.6412 20.0313C13.4582 21.308 15.8436 21.2027 15.9691 20.1367C16.0491 19.4564 16.4033 16.6018 16.7067 14.4239C16.8801 13.1788 18.4021 10.8877 20.1448 10.8877C20.5573 10.8877 20.8251 11.2959 20.7734 11.6457C20.7109 12.0519 19.9698 17.4672 20.0198 18.2743C20.1609 20.5331 21.7751 21.058 23.3142 21.058C24.532 21.058 25.5069 20.4813 26.3265 19.576C26.8711 20.4866 27.7139 21.0527 28.8495 21.0527C31.4475 21.0527 32.3439 19.1814 32.3439 19.1814C32.3439 19.1814 32.6546 21.0348 34.8937 21.0348C39.4309 21.0348 40.4897 13.1199 40.7147 10.481C40.9807 10.4913 42.5842 10.5897 42.8484 11.4873C43.102 12.3478 42.2967 15.1078 42.2306 17.9493C42.1967 19.4456 42.7467 21.0527 45.1161 21.0527C46.5624 21.0527 47.6963 20.3884 48.5194 19.6367C49.064 20.5099 49.8925 21.0527 51.0014 21.0527C52.2799 21.0527 53.1459 20.642 53.6958 20.2259C53.6601 20.4706 53.6244 20.7116 53.5905 20.9545C53.5887 20.9705 53.5869 20.9848 53.5851 21.0009C53.5905 20.9545 47.6016 25.2773 47.6016 29.3627C47.6016 30.9555 48.3409 32 50.2282 32C53.9833 32 55.1439 26.9897 55.6975 22.8418C55.7242 22.6454 55.7492 22.4597 55.7742 22.2811C56.3617 21.8365 56.9081 21.4098 57.4384 20.9955C58.2187 20.3866 58.9722 19.7992 59.84 19.16C59.8828 19.226 59.9239 19.2939 59.9686 19.3582C60.7596 20.4563 61.9416 21.0366 63.3897 21.0366C66.1074 21.0366 68.6215 18.951 70.4338 16.9117C70.707 17.919 71.1427 18.8743 71.8319 19.6224C72.6979 20.5652 73.8675 21.0634 75.2156 21.0634C77.8118 21.0634 79.6135 18.9921 80.5455 16.585C81.2562 16.9148 82.0365 17.1046 82.8686 17.1487C83.0507 17.9958 83.3953 18.7457 83.8953 19.3546C84.5256 20.1206 85.7148 21.0366 87.795 21.0366C89.8627 21.0366 91.9143 19.9313 93.2928 18.985C93.3606 19.0832 93.4267 19.1796 93.4999 19.2707C94.1498 20.076 95.373 21.0366 97.5103 21.0366C101.267 21.0366 103.329 17.96 103.415 17.8279C103.769 17.2901 103.619 16.5693 103.081 16.2127" fill="#1D0046"/>
</svg>
